<?xml version="1.0" standalone="no"?><!DOCTYPE svg PUBLIC "-//W3C//DTD SVG 1.1//EN" "http://www.w3.org/Graphics/SVG/1.1/DTD/svg11.dtd"><svg t="1585123682614" class="icon" viewBox="0 0 1024 1024" version="1.1" xmlns="http://www.w3.org/2000/svg" p-id="2712" xmlns:xlink="http://www.w3.org/1999/xlink" width="200" height="200"><defs><style type="text/css"></style></defs><path d="M688 99.7c-0.3-0.1-0.5-0.1-0.8-0.2-0.2-0.1-0.3-0.2-0.5-0.3-9.6-4-20.5 0.5-24.5 10L515.6 457.9c-1.2-0.1-2.4-0.2-3.6-0.2-30 0-54.3 24.3-54.3 54.3 0 16.1 7 30.5 18.2 40.5l-46.1 109.7c-4 9.5 0.5 20.5 10 24.6 2.4 1 4.8 1.5 7.3 1.5 7.3 0 14.3-4.3 17.3-11.5l46.4-110.4c0.4 0 0.9 0.1 1.3 0.1 30 0 54.3-24.3 54.3-54.3 0-15.3-6.3-29-16.4-38.9l139.4-331.6C831.6 209.6 922.7 353.1 922.7 512c0 226.5-184.2 410.7-410.7 410.7S101.3 738.5 101.3 512 285.5 101.3 512 101.3c14.6 0 29.3 0.8 43.7 2.3 10.2 1.1 19.5-6.4 20.6-16.7 1.1-10.3-6.4-19.5-16.7-20.6-15.7-1.7-31.8-2.5-47.7-2.5-247 0-448.1 201.1-448.1 448.2S264.9 960.2 512 960.2 960.2 759.1 960.2 512c0-179.8-106.9-341.6-272.2-412.3z"  p-id="2713"></path></svg>